<svg width="150" height="32" viewBox="0 0 150 32" fill="none" xmlns="http://www.w3.org/2000/svg">
<path d="M42.9903 30H34.7103V3.24H42.9903V30ZM81.385 3.24L76.025 10.2H66.465V30H58.185V10.2H45.625L50.985 3.24H81.385ZM111.007 30.44C110.474 30.44 109.941 30.3467 109.407 30.16C108.901 30 108.327 29.6133 107.687 29L91.2872 14.28V30H83.7672V7.8C83.7672 6.92 83.8872 6.16 84.1272 5.52C84.3939 4.88 84.7272 4.36 85.1272 3.96C85.5539 3.56 86.0339 3.26667 86.5672 3.08C87.1272 2.89333 87.7005 2.8 88.2872 2.8C88.7939 2.8 89.3005 2.89333 89.8072 3.08C90.3405 3.24 90.9405 3.62666 91.6072 4.24L108.007 18.96V3.24H115.567V25.4C115.567 26.28 115.434 27.04 115.167 27.68C114.927 28.32 114.594 28.8533 114.167 29.28C113.767 29.68 113.287 29.9733 112.727 30.16C112.167 30.3467 111.594 30.44 111.007 30.44Z" fill="white"/>
<path d="M12.0837 30.1027C-7.57632 30.6224 29.7935 -9.87258 31.7935 8.62744C32.2935 -14.8727 -14.2705 31.8077 12.0837 30.1027Z" fill="white" stroke="#0079AE" stroke-width="0.2" stroke-miterlimit="22.9256"/>
<ellipse cx="18.5" cy="16" rx="14.5" ry="15" fill="#2685AC"/>
<path d="M16.9941 1.00591C16.9421 1.01111 16.7399 1.03049 16.5429 1.04656C14.5039 1.21616 12.3004 1.90454 10.515 2.92548C6.36512 5.3047 3.63962 9.43949 3.09537 14.1804C2.95884 15.3686 2.96971 16.7477 3.12278 17.9765C3.47286 20.7814 4.64827 23.4582 6.49929 25.6811C6.86543 26.1209 7.86606 27.1206 8.3007 27.4811C10.7366 29.5022 13.6615 30.6956 16.8028 30.9493C18.804 31.1132 20.947 30.8756 22.7461 30.294C25.7371 29.3246 28.1947 27.5628 30.0537 25.0504C31.7186 22.7997 32.6781 20.2627 32.9649 17.3624C33.0117 16.9036 33.0117 15.079 32.9649 14.6311C32.6753 11.788 31.7867 9.36295 30.2423 7.20814C27.9486 4.00168 24.4983 1.84969 20.6026 1.19678C19.6516 1.03568 19.3346 1.01113 18.1558 1.0031C17.5709 0.997428 17.0461 1.00024 16.9941 1.00591ZM17.1117 3.32184C17.3087 3.40358 17.2951 3.19619 17.2951 6.20328C17.2951 8.47005 17.2894 8.90706 17.2568 8.91793C17.1472 8.96139 15.9443 8.80029 15.2446 8.65006C14.4269 8.47525 13.5575 8.22672 13.533 8.16105C13.506 8.09302 13.6643 7.67777 13.8887 7.22706C14.4023 6.19761 14.9272 5.29619 15.5806 4.32154C16.1442 3.48012 16.2013 3.42576 16.5977 3.32466C16.7834 3.27789 17.0049 3.27555 17.1117 3.32184ZM19.8509 3.36531C20.0286 3.41444 20.4032 3.8245 20.7613 4.35411C21.1303 4.90309 21.6386 5.74688 21.9561 6.3398C22.2429 6.87507 22.653 7.71603 22.7324 7.93193L22.79 8.09018L22.7134 8.12848C22.5108 8.23242 21.3353 8.54893 20.63 8.6883C20.0479 8.80311 19.0062 8.93396 18.9679 8.89569C18.9571 8.88766 18.9491 7.67776 18.9491 6.21131C18.9491 3.23965 18.9377 3.40924 19.1319 3.34358C19.2415 3.30814 19.695 3.32184 19.8509 3.36531ZM13.2599 4.2724C13.2188 4.3513 13.1314 4.51523 13.0657 4.63287C12.6609 5.34531 12.2673 6.14041 11.8955 6.99789C11.7179 7.4075 11.6933 7.44862 11.6357 7.44012C11.5403 7.42925 10.3974 6.86374 10.0228 6.64264C9.63724 6.41587 9.624 6.38892 9.81251 6.18671C10.25 5.71144 11.5185 4.89223 12.5106 4.44436C12.7733 4.32388 13.2599 4.13541 13.3119 4.13021C13.3228 4.13021 13.2982 4.19587 13.2599 4.2724ZM23.1887 4.25021C24.1185 4.52895 25.5264 5.32925 26.3957 6.07193L26.6252 6.26847L26.5378 6.34501C26.2563 6.57981 24.4411 7.49492 24.34 7.45382C24.3207 7.44579 24.2715 7.34989 24.2276 7.24076C23.9517 6.55005 23.4486 5.50642 23.0276 4.75287C22.8717 4.47177 22.7352 4.22279 22.7243 4.19586C22.7078 4.15476 22.7215 4.15192 22.8415 4.16846C22.9156 4.17649 23.0716 4.21478 23.1887 4.25021ZM8.53835 7.80344C8.58748 7.82518 8.86389 7.97305 9.15349 8.13415C9.44357 8.29526 9.98449 8.57917 10.3591 8.76484C10.8869 9.02988 11.0343 9.11443 11.0343 9.15553C11.0343 9.1853 10.9497 9.47491 10.8429 9.80279C10.2661 11.6132 9.91079 13.2681 9.77661 14.754C9.76055 14.9425 9.74118 15.1366 9.73315 15.1829L9.71945 15.2732H7.66106C6.5291 15.2732 5.50956 15.2647 5.39192 15.2567C5.19775 15.2373 5.1812 15.2321 5.1623 15.1664C5.08576 14.8905 5.25538 13.7463 5.52609 12.7197C5.95223 11.0945 6.79174 9.42578 7.8278 8.13129C8.1037 7.78688 8.1859 7.72688 8.34181 7.75145C8.40181 7.75948 8.48922 7.78455 8.53835 7.80344ZM28.137 7.84737C28.3638 8.0028 28.7739 8.49982 29.1405 9.05966C30.16 10.6301 30.8871 12.6346 31.087 14.4261C31.1087 14.6283 31.1281 14.9014 31.1281 15.0327V15.2704L31.0048 15.2892C30.9367 15.2977 29.8648 15.303 28.6237 15.2949C26.672 15.2864 26.3659 15.2812 26.3437 15.2458C26.3026 15.1801 26.2671 14.9671 26.2208 14.4946C26.0947 13.2219 25.7508 11.6571 25.2093 9.90908C25.0643 9.43664 25.0615 9.41493 25.1054 9.34926C25.19 9.21839 25.3927 9.08704 25.9553 8.7946C26.5435 8.49177 26.9205 8.2839 27.3552 8.02453C27.8937 7.70516 27.9211 7.69949 28.137 7.84737ZM23.4131 10.0154C23.6291 10.1959 23.9163 10.9882 24.2498 12.3096C24.4931 13.2847 24.7228 14.866 24.6651 15.1773L24.6462 15.2732H21.8191H18.9953L18.9651 15.1367C18.924 14.9482 18.924 11.3675 18.9623 11.2253C19.0119 11.0534 19.121 11.0099 19.9875 10.8379C20.9966 10.6329 21.5597 10.4855 22.4342 10.1931C22.8334 10.0594 23.1972 9.95021 23.2464 9.94738C23.2983 9.94738 23.364 9.97192 23.4131 10.0154ZM13.3308 10.0404C13.4593 10.0759 13.8528 10.193 14.2057 10.2998C15.1842 10.5975 15.8895 10.7638 16.584 10.8625C17.0134 10.9197 17.0872 10.9442 17.1991 11.059L17.2951 11.1573V13.2167V15.2732L14.4816 15.2675C12.9344 15.2618 11.6579 15.251 11.647 15.2401C11.5374 15.131 11.7099 13.716 11.9669 12.61C12.1691 11.7417 12.5598 10.4444 12.7048 10.1604C12.8088 9.9554 12.9425 9.93083 13.3308 10.0404ZM9.70575 17.1299C9.73031 17.1573 9.76859 17.3704 9.81772 17.7583C9.85599 18.0805 9.91363 18.4985 9.9434 18.687C10.1347 19.8719 10.5316 21.3606 10.996 22.6523C11.0919 22.9253 11.1628 23.1578 11.1519 23.1686C11.141 23.1795 10.9714 23.2612 10.7749 23.3515C9.98732 23.7091 9.20024 24.1301 8.54403 24.534C8.35269 24.654 8.17742 24.758 8.15002 24.7665C8.09002 24.791 7.95067 24.654 7.64736 24.2718C6.70153 23.0865 6.08072 21.8576 5.61301 20.23C5.27994 19.0801 5.04749 17.5669 5.15662 17.2801C5.22513 17.1001 5.4793 17.0807 7.8141 17.0864C9.42134 17.0892 9.67031 17.0944 9.70575 17.1299ZM17.0078 17.1058C17.0735 17.1219 17.158 17.171 17.2048 17.2173L17.2813 17.2967L17.2894 19.356C17.295 21.3034 17.2922 21.4154 17.2483 21.4286C17.2209 21.4371 17.0706 21.4561 16.9119 21.4726C15.8158 21.5874 14.6101 21.8765 13.4045 22.3112C12.6802 22.5734 12.7539 22.5512 12.7128 22.4968C12.6089 22.3575 12.2456 21.1395 12.0212 20.1889C11.8081 19.2823 11.6168 18.0776 11.6031 17.5645C11.5922 17.1875 11.6494 17.1464 12.2375 17.1058C12.7374 17.0699 16.8656 17.0699 17.0078 17.1058ZM24.4355 17.1356C24.6514 17.2338 24.6679 17.3652 24.5503 18.1679C24.4029 19.1978 24.1213 20.4101 23.793 21.4315C23.536 22.229 23.3937 22.5923 23.3337 22.5923C23.32 22.5923 23.1505 22.5323 22.9591 22.4586C22.1092 22.1307 21.2782 21.8765 20.5071 21.7074C20.116 21.6228 19.8703 21.5765 19.1895 21.4726C18.9925 21.44 18.9897 21.44 18.9623 21.3413C18.9406 21.2732 18.9354 20.6123 18.9406 19.2823L18.9491 17.3269L19.0142 17.2584C19.1593 17.103 19.5339 17.0807 22.2292 17.0864C24.1322 17.0892 24.3453 17.0944 24.4355 17.1356ZM30.9065 17.1521C30.9585 17.1767 31.027 17.231 31.0568 17.2749C31.1087 17.3458 31.1087 17.3623 31.0761 17.6982C30.9419 19.0721 30.4473 20.7597 29.8128 22.0268C29.3262 22.9967 28.6208 24.0507 28.0581 24.6488L27.8829 24.8373L27.6396 24.679C27.0273 24.2826 26.3437 23.9033 25.4938 23.488C24.9524 23.2234 24.9575 23.2343 25.1437 22.6551C25.5566 21.3686 25.7097 20.8391 25.8764 20.1068C26.0593 19.3121 26.1991 18.482 26.2615 17.8267C26.3002 17.4115 26.3328 17.2995 26.4368 17.2367C26.647 17.1082 27.1364 17.0864 29.3101 17.0973C30.6523 17.1058 30.8243 17.111 30.9065 17.1521ZM17.0517 23.3298C17.1032 23.3463 17.1774 23.3898 17.2156 23.428L17.2813 23.4989L17.2894 25.4954C17.2922 26.5962 17.2865 27.869 17.2757 28.3277L17.2539 29.1606L16.9941 29.1526C16.7182 29.1469 16.412 29.1115 16.1876 29.0624C16.0591 29.035 16.0403 29.0184 15.8815 28.8082C15.6656 28.5214 15.2446 27.9016 15.0122 27.5222C14.4051 26.5414 13.5797 24.8676 13.4895 24.4414C13.4621 24.3101 13.4649 24.2827 13.5112 24.201C13.5821 24.081 13.7054 24.0152 14.1235 23.8759C14.7717 23.6604 15.496 23.4965 16.3242 23.3709C16.8245 23.2972 16.9147 23.2915 17.0517 23.3298ZM20.2336 23.4252C20.6493 23.488 21.032 23.5674 21.5706 23.7011C22.4428 23.917 22.7078 24.029 22.7078 24.1764C22.7078 24.3375 21.9533 25.8942 21.4558 26.7573C21.0075 27.5383 20.5454 28.2512 20.1188 28.8219L19.944 29.0567L19.7059 29.0898C19.575 29.1087 19.3615 29.1304 19.233 29.1389C19.0034 29.155 18.9953 29.1526 18.9599 29.0898C18.9051 28.9967 18.9023 23.6302 18.9542 23.5126C19.0142 23.3789 19.1182 23.3543 19.5641 23.368C19.7824 23.376 20.0834 23.4006 20.2336 23.4252ZM11.8247 24.8316C11.8544 24.8453 11.9697 25.0693 12.0897 25.3423C12.5215 26.3203 12.9864 27.2052 13.5061 28.0438C13.6672 28.3032 13.73 28.426 13.7026 28.4312C13.6455 28.4449 13.0029 28.2294 12.6065 28.0627C11.647 27.6582 10.5505 27.0139 9.82058 26.4214C9.52247 26.1781 9.51444 26.0827 9.77145 25.8833C10.2198 25.5365 11.4118 24.8676 11.6631 24.8236C11.7014 24.8179 11.7424 24.8099 11.7533 24.8071C11.767 24.8071 11.7973 24.8156 11.8247 24.8316ZM24.728 24.9139C25.2448 25.083 26.4831 25.7765 26.6064 25.9679C26.6635 26.0524 26.6555 26.0581 26.3163 26.334C25.3133 27.1395 24.0939 27.8359 23.047 28.1992C22.5736 28.3603 22.5438 28.3688 22.5438 28.3083C22.5438 28.2431 22.6506 28.0409 22.9317 27.56C23.2766 26.9756 23.6536 26.2358 23.938 25.5828C24.2167 24.9465 24.2796 24.8591 24.4549 24.8591C24.512 24.8591 24.6354 24.8836 24.728 24.9139Z" fill="white" stroke="#0079AE" stroke-width="0.4" stroke-miterlimit="22.9256"/>
<path d="M5.29346 28.6274C14.2935 37.6274 41.7935 9.62744 29.7935 2.62744C36.7935 10.6274 14.7935 32.6274 5.29346 28.6274Z" fill="white" stroke="#0079AE" stroke-width="0.2" stroke-miterlimit="22.9256"/>
</svg>
